<?xml version="1.0" encoding="UTF-8" standalone="no"?>
<!DOCTYPE svg PUBLIC "-//W3C//DTD SVG 1.1//EN"
 "http://www.w3.org/Graphics/SVG/1.1/DTD/svg11.dtd">
<!-- Generated by graphviz version 2.38.0 (20140413.2041)
 -->
<!-- Title: display broken into heirarchical features Pages: 1 -->
<svg width="1654pt" height="432pt"
 viewBox="0.00 0.00 1653.74 432.00" xmlns="http://www.w3.org/2000/svg" xmlns:xlink="http://www.w3.org/1999/xlink">
<g id="graph0" class="graph" transform="scale(1 1) rotate(0) translate(4 428)">
<title>display broken into heirarchical features</title>
<polygon fill="white" stroke="none" points="-4,4 -4,-428 1649.74,-428 1649.74,4 -4,4"/>
<!-- CSS properties -->
<g id="node1" class="node"><title>CSS properties</title>
<polygon fill="none" stroke="black" points="1093.26,-352 992.483,-352 992.483,-316 1093.26,-316 1093.26,-352"/>
<text text-anchor="middle" x="1042.87" y="-329.8" font-family="Times,serif" font-size="14.00">CSS properties</text>
</g>
<!-- display -->
<g id="node9" class="node"><title>display</title>
<polygon fill="none" stroke="black" points="1074.49,-280 1011.25,-280 1011.25,-244 1074.49,-244 1074.49,-280"/>
<text text-anchor="middle" x="1042.87" y="-259.044" font-family="monospace" font-size="14.00">display</text>
</g>
<!-- CSS properties&#45;&gt;display -->
<g id="edge2" class="edge"><title>CSS properties&#45;&gt;display</title>
<path fill="none" stroke="black" d="M1042.87,-315.697C1042.87,-307.983 1042.87,-298.712 1042.87,-290.112"/>
<polygon fill="black" stroke="black" points="1046.37,-290.104 1042.87,-280.104 1039.37,-290.104 1046.37,-290.104"/>
</g>
<!-- CSS1\nValues -->
<g id="node2" class="node"><title>CSS1\nValues</title>
<polygon fill="none" stroke="black" points="531.873,-201 477.873,-201 477.873,-165 531.873,-165 531.873,-201"/>
<text text-anchor="middle" x="504.873" y="-185.8" font-family="Times,serif" font-size="14.00">CSS1</text>
<text text-anchor="middle" x="504.873" y="-171.8" font-family="Times,serif" font-size="14.00">Values</text>
</g>
<!-- display: none -->
<g id="node10" class="node"><title>display: none</title>
<ellipse fill="none" stroke="black" cx="272.873" cy="-97" rx="47.8753" ry="18"/>
<text text-anchor="middle" x="272.873" y="-94.8887" font-family="monospace" font-size="10.00">display: none</text>
</g>
<!-- CSS1\nValues&#45;&gt;display: none -->
<g id="edge4" class="edge"><title>CSS1\nValues&#45;&gt;display: none</title>
<path fill="none" stroke="black" d="M477.687,-173.316C443.1,-162.124 381.639,-141.746 329.873,-122 324.218,-119.843 318.289,-117.472 312.481,-115.086"/>
<polygon fill="black" stroke="black" points="313.469,-111.706 302.892,-111.091 310.777,-118.167 313.469,-111.706"/>
</g>
<!-- display: block -->
<g id="node11" class="node"><title>display: block</title>
<ellipse fill="none" stroke="black" cx="387.873" cy="-97" rx="49.3829" ry="18"/>
<text text-anchor="middle" x="387.873" y="-94.8887" font-family="monospace" font-size="10.00">display: block</text>
</g>
<!-- CSS1\nValues&#45;&gt;display: block -->
<g id="edge5" class="edge"><title>CSS1\nValues&#45;&gt;display: block</title>
<path fill="none" stroke="black" d="M480.914,-164.799C462.628,-151.67 437.326,-133.504 417.723,-119.431"/>
<polygon fill="black" stroke="black" points="419.601,-116.47 409.436,-113.481 415.518,-122.156 419.601,-116.47"/>
</g>
<!-- display: inline -->
<g id="node12" class="node"><title>display: inline</title>
<ellipse fill="none" stroke="black" cx="504.873" cy="-97" rx="49.4023" ry="18"/>
<text text-anchor="middle" x="504.873" y="-94.8887" font-family="monospace" font-size="10.00">display: inline</text>
</g>
<!-- CSS1\nValues&#45;&gt;display: inline -->
<g id="edge6" class="edge"><title>CSS1\nValues&#45;&gt;display: inline</title>
<path fill="none" stroke="black" d="M504.873,-164.595C504.873,-153.257 504.873,-138.227 504.873,-125.315"/>
<polygon fill="black" stroke="black" points="508.373,-125.095 504.873,-115.095 501.373,-125.095 508.373,-125.095"/>
</g>
<!-- display: list&#45;item -->
<g id="node13" class="node"><title>display: list&#45;item</title>
<ellipse fill="none" stroke="black" cx="630.873" cy="-97" rx="58.1324" ry="18"/>
<text text-anchor="middle" x="630.873" y="-94.8887" font-family="monospace" font-size="10.00">display: list&#45;item</text>
</g>
<!-- CSS1\nValues&#45;&gt;display: list&#45;item -->
<g id="edge7" class="edge"><title>CSS1\nValues&#45;&gt;display: list&#45;item</title>
<path fill="none" stroke="black" d="M530.675,-164.799C550.419,-151.637 577.755,-133.412 598.888,-119.323"/>
<polygon fill="black" stroke="black" points="600.855,-122.219 607.234,-113.76 596.972,-116.395 600.855,-122.219"/>
</g>
<!-- CSS2.1\nValues -->
<g id="node3" class="node"><title>CSS2.1\nValues</title>
<polygon fill="none" stroke="black" points="878.285,-201 819.462,-201 819.462,-165 878.285,-165 878.285,-201"/>
<text text-anchor="middle" x="848.873" y="-185.8" font-family="Times,serif" font-size="14.00">CSS2.1</text>
<text text-anchor="middle" x="848.873" y="-171.8" font-family="Times,serif" font-size="14.00">Values</text>
</g>
<!-- Table\nLayout\nValues -->
<g id="node5" class="node"><title>Table\nLayout\nValues</title>
<polygon fill="none" stroke="black" points="762.53,-122 707.217,-122 707.217,-72 762.53,-72 762.53,-122"/>
<text text-anchor="middle" x="734.873" y="-106.8" font-family="Times,serif" font-size="14.00">Table</text>
<text text-anchor="middle" x="734.873" y="-92.8" font-family="Times,serif" font-size="14.00">Layout</text>
<text text-anchor="middle" x="734.873" y="-78.8" font-family="Times,serif" font-size="14.00">Values</text>
</g>
<!-- CSS2.1\nValues&#45;&gt;Table\nLayout\nValues -->
<g id="edge9" class="edge"><title>CSS2.1\nValues&#45;&gt;Table\nLayout\nValues</title>
<path fill="none" stroke="black" d="M825.529,-164.799C809.854,-153.249 788.889,-137.801 771.069,-124.671"/>
<polygon fill="black" stroke="black" points="772.737,-121.552 762.611,-118.438 768.585,-127.188 772.737,-121.552"/>
</g>
<!-- display: inline&#45;block -->
<g id="node14" class="node"><title>display: inline&#45;block</title>
<ellipse fill="none" stroke="black" cx="848.873" cy="-97" rx="68.7074" ry="18"/>
<text text-anchor="middle" x="848.873" y="-94.8887" font-family="monospace" font-size="10.00">display: inline&#45;block</text>
</g>
<!-- CSS2.1\nValues&#45;&gt;display: inline&#45;block -->
<g id="edge10" class="edge"><title>CSS2.1\nValues&#45;&gt;display: inline&#45;block</title>
<path fill="none" stroke="black" d="M848.873,-164.595C848.873,-153.257 848.873,-138.227 848.873,-125.315"/>
<polygon fill="black" stroke="black" points="852.373,-125.095 848.873,-115.095 845.373,-125.095 852.373,-125.095"/>
</g>
<!-- Flexible\nBox\nValues -->
<g id="node4" class="node"><title>Flexible\nBox\nValues</title>
<polygon fill="none" stroke="black" points="1073.76,-208 1011.99,-208 1011.99,-158 1073.76,-158 1073.76,-208"/>
<text text-anchor="middle" x="1042.87" y="-192.8" font-family="Times,serif" font-size="14.00">Flexible</text>
<text text-anchor="middle" x="1042.87" y="-178.8" font-family="Times,serif" font-size="14.00">Box</text>
<text text-anchor="middle" x="1042.87" y="-164.8" font-family="Times,serif" font-size="14.00">Values</text>
</g>
<!-- display: flex -->
<g id="node15" class="node"><title>display: flex</title>
<ellipse fill="none" stroke="black" cx="979.873" cy="-97" rx="44.2614" ry="18"/>
<text text-anchor="middle" x="979.873" y="-94.8887" font-family="monospace" font-size="10.00">display: flex</text>
</g>
<!-- Flexible\nBox\nValues&#45;&gt;display: flex -->
<g id="edge12" class="edge"><title>Flexible\nBox\nValues&#45;&gt;display: flex</title>
<path fill="none" stroke="black" d="M1024.65,-157.704C1016.37,-146.661 1006.59,-133.619 998.283,-122.546"/>
<polygon fill="black" stroke="black" points="1001.07,-120.428 992.27,-114.528 995.47,-124.628 1001.07,-120.428"/>
</g>
<!-- display: inline&#45;flex -->
<g id="node16" class="node"><title>display: inline&#45;flex</title>
<ellipse fill="none" stroke="black" cx="1105.87" cy="-97" rx="63.5861" ry="18"/>
<text text-anchor="middle" x="1105.87" y="-94.8887" font-family="monospace" font-size="10.00">display: inline&#45;flex</text>
</g>
<!-- Flexible\nBox\nValues&#45;&gt;display: inline&#45;flex -->
<g id="edge13" class="edge"><title>Flexible\nBox\nValues&#45;&gt;display: inline&#45;flex</title>
<path fill="none" stroke="black" d="M1061.1,-157.704C1069.24,-146.846 1078.83,-134.055 1087.05,-123.104"/>
<polygon fill="black" stroke="black" points="1090.08,-124.887 1093.28,-114.787 1084.48,-120.687 1090.08,-124.887"/>
</g>
<!-- display: table -->
<g id="node17" class="node"><title>display: table</title>
<ellipse fill="none" stroke="black" cx="47.8733" cy="-18" rx="47.747" ry="18"/>
<text text-anchor="middle" x="47.8733" y="-15.8887" font-family="monospace" font-size="10.00">display: table</text>
</g>
<!-- Table\nLayout\nValues&#45;&gt;display: table -->
<g id="edge14" class="edge"><title>Table\nLayout\nValues&#45;&gt;display: table</title>
<path fill="none" stroke="black" d="M706.938,-75.8341C703.976,-74.3272 700.928,-73.0056 697.873,-72 447.073,10.5643 364.87,-82.0341 104.873,-36 100.698,-35.2607 96.3955,-34.3212 92.1142,-33.2647"/>
<polygon fill="black" stroke="black" points="92.797,-29.8245 82.2326,-30.6265 90.9913,-36.5876 92.797,-29.8245"/>
</g>
<!-- display: table&#45;cell -->
<g id="node18" class="node"><title>display: table&#45;cell</title>
<ellipse fill="none" stroke="black" cx="174.873" cy="-18" rx="61.3884" ry="18"/>
<text text-anchor="middle" x="174.873" y="-15.8887" font-family="monospace" font-size="10.00">display: table&#45;cell</text>
</g>
<!-- Table\nLayout\nValues&#45;&gt;display: table&#45;cell -->
<g id="edge15" class="edge"><title>Table\nLayout\nValues&#45;&gt;display: table&#45;cell</title>
<path fill="none" stroke="black" d="M706.918,-75.8937C703.96,-74.3748 700.918,-73.034 697.873,-72 506.631,-7.05752 444.301,-67.9327 244.873,-36 239.471,-35.1349 233.87,-34.069 228.297,-32.8962"/>
<polygon fill="black" stroke="black" points="228.865,-29.4372 218.345,-30.69 227.35,-36.2713 228.865,-29.4372"/>
</g>
<!-- display: table&#45;column -->
<g id="node19" class="node"><title>display: table&#45;column</title>
<ellipse fill="none" stroke="black" cx="326.873" cy="-18" rx="72.64" ry="18"/>
<text text-anchor="middle" x="326.873" y="-15.8887" font-family="monospace" font-size="10.00">display: table&#45;column</text>
</g>
<!-- Table\nLayout\nValues&#45;&gt;display: table&#45;column -->
<g id="edge16" class="edge"><title>Table\nLayout\nValues&#45;&gt;display: table&#45;column</title>
<path fill="none" stroke="black" d="M706.868,-76.0356C703.92,-74.4879 700.895,-73.1017 697.873,-72 576.269,-27.6556 536.57,-57.155 408.873,-36 402.567,-34.9552 396.008,-33.7678 389.469,-32.5177"/>
<polygon fill="black" stroke="black" points="389.736,-29.0034 379.249,-30.5129 388.388,-35.8725 389.736,-29.0034"/>
</g>
<!-- display: inline&#45;table -->
<g id="node20" class="node"><title>display: inline&#45;table</title>
<ellipse fill="none" stroke="black" cx="484.873" cy="-18" rx="67.0724" ry="18"/>
<text text-anchor="middle" x="484.873" y="-15.8887" font-family="monospace" font-size="10.00">display: inline&#45;table</text>
</g>
<!-- Table\nLayout\nValues&#45;&gt;display: inline&#45;table -->
<g id="edge17" class="edge"><title>Table\nLayout\nValues&#45;&gt;display: inline&#45;table</title>
<path fill="none" stroke="black" d="M707.134,-76.6438C704.084,-74.9313 700.964,-73.3418 697.873,-72 683.686,-65.8396 601.821,-46.1754 543.828,-32.6138"/>
<polygon fill="black" stroke="black" points="544.555,-29.1893 534.021,-30.3252 542.964,-36.0062 544.555,-29.1893"/>
</g>
<!-- display: table&#45;caption -->
<g id="node21" class="node"><title>display: table&#45;caption</title>
<ellipse fill="none" stroke="black" cx="642.873" cy="-18" rx="72.6575" ry="18"/>
<text text-anchor="middle" x="642.873" y="-15.8887" font-family="monospace" font-size="10.00">display: table&#45;caption</text>
</g>
<!-- Table\nLayout\nValues&#45;&gt;display: table&#45;caption -->
<g id="edge18" class="edge"><title>Table\nLayout\nValues&#45;&gt;display: table&#45;caption</title>
<path fill="none" stroke="black" d="M706.77,-72.4791C695.289,-62.87 682.046,-51.7861 670.604,-42.2094"/>
<polygon fill="black" stroke="black" points="672.556,-39.2793 662.641,-35.545 668.064,-44.6473 672.556,-39.2793"/>
</g>
<!-- display: table&#45;column&#45;group -->
<g id="node22" class="node"><title>display: table&#45;column&#45;group</title>
<ellipse fill="none" stroke="black" cx="826.873" cy="-18" rx="93.7347" ry="18"/>
<text text-anchor="middle" x="826.873" y="-15.8887" font-family="monospace" font-size="10.00">display: table&#45;column&#45;group</text>
</g>
<!-- Table\nLayout\nValues&#45;&gt;display: table&#45;column&#45;group -->
<g id="edge19" class="edge"><title>Table\nLayout\nValues&#45;&gt;display: table&#45;column&#45;group</title>
<path fill="none" stroke="black" d="M762.976,-72.4791C774.372,-62.9412 787.504,-51.9503 798.888,-42.4224"/>
<polygon fill="black" stroke="black" points="801.396,-44.8873 806.819,-35.785 796.904,-39.5193 801.396,-44.8873"/>
</g>
<!-- display: table&#45;footer&#45;group -->
<g id="node23" class="node"><title>display: table&#45;footer&#45;group</title>
<ellipse fill="none" stroke="black" cx="1027.87" cy="-18" rx="89.9104" ry="18"/>
<text text-anchor="middle" x="1027.87" y="-15.8887" font-family="monospace" font-size="10.00">display: table&#45;footer&#45;group</text>
</g>
<!-- Table\nLayout\nValues&#45;&gt;display: table&#45;footer&#45;group -->
<g id="edge20" class="edge"><title>Table\nLayout\nValues&#45;&gt;display: table&#45;footer&#45;group</title>
<path fill="none" stroke="black" d="M762.59,-76.0481C765.316,-74.5403 768.101,-73.1581 770.873,-72 787.751,-64.9497 884.599,-45.8863 954.437,-32.6574"/>
<polygon fill="black" stroke="black" points="955.355,-36.0459 964.532,-30.7501 954.056,-29.1676 955.355,-36.0459"/>
</g>
<!-- display: table&#45;header&#45;group -->
<g id="node24" class="node"><title>display: table&#45;header&#45;group</title>
<ellipse fill="none" stroke="black" cx="1227.87" cy="-18" rx="92.0673" ry="18"/>
<text text-anchor="middle" x="1227.87" y="-15.8887" font-family="monospace" font-size="10.00">display: table&#45;header&#45;group</text>
</g>
<!-- Table\nLayout\nValues&#45;&gt;display: table&#45;header&#45;group -->
<g id="edge21" class="edge"><title>Table\nLayout\nValues&#45;&gt;display: table&#45;header&#45;group</title>
<path fill="none" stroke="black" d="M762.884,-75.526C765.504,-74.1701 768.187,-72.9637 770.873,-72 920.564,-18.3079 969.265,-57.2095 1126.87,-36 1135.11,-34.8921 1143.7,-33.6224 1152.24,-32.2868"/>
<polygon fill="black" stroke="black" points="1152.91,-35.7255 1162.23,-30.6945 1151.8,-28.8129 1152.91,-35.7255"/>
</g>
<!-- display: table&#45;row -->
<g id="node25" class="node"><title>display: table&#45;row</title>
<ellipse fill="none" stroke="black" cx="1399.87" cy="-18" rx="62.1351" ry="18"/>
<text text-anchor="middle" x="1399.87" y="-15.8887" font-family="monospace" font-size="10.00">display: table&#45;row</text>
</g>
<!-- Table\nLayout\nValues&#45;&gt;display: table&#45;row -->
<g id="edge22" class="edge"><title>Table\nLayout\nValues&#45;&gt;display: table&#45;row</title>
<path fill="none" stroke="black" d="M762.847,-75.4194C765.475,-74.0867 768.169,-72.9147 770.873,-72 888.578,-32.1804 1206.01,-54.5344 1328.87,-36 1334.36,-35.1729 1340.04,-34.1319 1345.69,-32.9745"/>
<polygon fill="black" stroke="black" points="1346.76,-36.325 1355.79,-30.7861 1345.28,-29.4838 1346.76,-36.325"/>
</g>
<!-- display: table&#45;row&#45;group -->
<g id="node26" class="node"><title>display: table&#45;row&#45;group</title>
<ellipse fill="none" stroke="black" cx="1562.87" cy="-18" rx="82.7302" ry="18"/>
<text text-anchor="middle" x="1562.87" y="-15.8887" font-family="monospace" font-size="10.00">display: table&#45;row&#45;group</text>
</g>
<!-- Table\nLayout\nValues&#45;&gt;display: table&#45;row&#45;group -->
<g id="edge23" class="edge"><title>Table\nLayout\nValues&#45;&gt;display: table&#45;row&#45;group</title>
<path fill="none" stroke="black" d="M762.834,-75.381C765.465,-74.0566 768.164,-72.8971 770.873,-72 918.742,-23.0482 1316.18,-54.1906 1470.87,-36 1478.59,-35.093 1486.63,-33.9319 1494.6,-32.6431"/>
<polygon fill="black" stroke="black" points="1495.37,-36.0642 1504.65,-30.9519 1494.2,-29.1614 1495.37,-36.0642"/>
</g>
<!-- Grid Box\nModel\nValues -->
<g id="node6" class="node"><title>Grid Box\nModel\nValues</title>
<polygon fill="none" stroke="black" points="1266.88,-208 1198.87,-208 1198.87,-158 1266.88,-158 1266.88,-208"/>
<text text-anchor="middle" x="1232.87" y="-192.8" font-family="Times,serif" font-size="14.00">Grid Box</text>
<text text-anchor="middle" x="1232.87" y="-178.8" font-family="Times,serif" font-size="14.00">Model</text>
<text text-anchor="middle" x="1232.87" y="-164.8" font-family="Times,serif" font-size="14.00">Values</text>
</g>
<!-- display: grid -->
<g id="node27" class="node"><title>display: grid</title>
<ellipse fill="none" stroke="black" cx="1232.87" cy="-97" rx="45.3537" ry="18"/>
<text text-anchor="middle" x="1232.87" y="-94.8887" font-family="monospace" font-size="10.00">display: grid</text>
</g>
<!-- Grid Box\nModel\nValues&#45;&gt;display: grid -->
<g id="edge25" class="edge"><title>Grid Box\nModel\nValues&#45;&gt;display: grid</title>
<path fill="none" stroke="black" d="M1232.87,-157.704C1232.87,-147.562 1232.87,-135.736 1232.87,-125.296"/>
<polygon fill="black" stroke="black" points="1236.37,-125.048 1232.87,-115.048 1229.37,-125.048 1236.37,-125.048"/>
</g>
<!-- display: inline&#45;grid -->
<g id="node28" class="node"><title>display: inline&#45;grid</title>
<ellipse fill="none" stroke="black" cx="1360.87" cy="-97" rx="64.6782" ry="18"/>
<text text-anchor="middle" x="1360.87" y="-94.8887" font-family="monospace" font-size="10.00">display: inline&#45;grid</text>
</g>
<!-- Grid Box\nModel\nValues&#45;&gt;display: inline&#45;grid -->
<g id="edge26" class="edge"><title>Grid Box\nModel\nValues&#45;&gt;display: inline&#45;grid</title>
<path fill="none" stroke="black" d="M1267.17,-159.49C1286.1,-147.071 1309.47,-131.733 1328.14,-119.481"/>
<polygon fill="black" stroke="black" points="1330.18,-122.33 1336.62,-113.917 1326.34,-116.477 1330.18,-122.33"/>
</g>
<!-- Basic Box\nModel\nValues -->
<g id="node7" class="node"><title>Basic Box\nModel\nValues</title>
<polygon fill="none" stroke="black" points="1445.81,-208 1371.93,-208 1371.93,-158 1445.81,-158 1445.81,-208"/>
<text text-anchor="middle" x="1408.87" y="-192.8" font-family="Times,serif" font-size="14.00">Basic Box</text>
<text text-anchor="middle" x="1408.87" y="-178.8" font-family="Times,serif" font-size="14.00">Model</text>
<text text-anchor="middle" x="1408.87" y="-164.8" font-family="Times,serif" font-size="14.00">Values</text>
</g>
<!-- display: run&#45;in -->
<g id="node29" class="node"><title>display: run&#45;in</title>
<ellipse fill="none" stroke="black" cx="1495.87" cy="-97" rx="52.0656" ry="18"/>
<text text-anchor="middle" x="1495.87" y="-94.8887" font-family="monospace" font-size="10.00">display: run&#45;in</text>
</g>
<!-- Basic Box\nModel\nValues&#45;&gt;display: run&#45;in -->
<g id="edge28" class="edge"><title>Basic Box\nModel\nValues&#45;&gt;display: run&#45;in</title>
<path fill="none" stroke="black" d="M1434.04,-157.704C1445.89,-146.256 1459.97,-132.662 1471.7,-121.338"/>
<polygon fill="black" stroke="black" points="1474.26,-123.735 1479.02,-114.271 1469.4,-118.699 1474.26,-123.735"/>
</g>
<!-- CSS -->
<g id="node8" class="node"><title>CSS</title>
<polygon fill="none" stroke="black" points="1069.87,-424 1015.87,-424 1015.87,-388 1069.87,-388 1069.87,-424"/>
<text text-anchor="middle" x="1042.87" y="-403.044" font-family="monospace" font-size="14.00">CSS</text>
</g>
<!-- CSS&#45;&gt;CSS properties -->
<g id="edge1" class="edge"><title>CSS&#45;&gt;CSS properties</title>
<path fill="none" stroke="black" d="M1042.87,-387.697C1042.87,-379.983 1042.87,-370.712 1042.87,-362.112"/>
<polygon fill="black" stroke="black" points="1046.37,-362.104 1042.87,-352.104 1039.37,-362.104 1046.37,-362.104"/>
</g>
<!-- display&#45;&gt;CSS1\nValues -->
<g id="edge3" class="edge"><title>display&#45;&gt;CSS1\nValues</title>
<path fill="none" stroke="black" d="M1011.23,-256.471C917.575,-243.067 642.101,-203.64 541.875,-189.296"/>
<polygon fill="black" stroke="black" points="542.303,-185.821 531.908,-187.869 541.311,-192.751 542.303,-185.821"/>
</g>
<!-- display&#45;&gt;CSS2.1\nValues -->
<g id="edge8" class="edge"><title>display&#45;&gt;CSS2.1\nValues</title>
<path fill="none" stroke="black" d="M1011.27,-248.457C977.61,-235.096 924.279,-213.929 887.989,-199.525"/>
<polygon fill="black" stroke="black" points="888.822,-196.09 878.237,-195.654 886.24,-202.597 888.822,-196.09"/>
</g>
<!-- display&#45;&gt;Flexible\nBox\nValues -->
<g id="edge11" class="edge"><title>display&#45;&gt;Flexible\nBox\nValues</title>
<path fill="none" stroke="black" d="M1042.87,-243.911C1042.87,-236.332 1042.87,-227.13 1042.87,-218.235"/>
<polygon fill="black" stroke="black" points="1046.37,-218.05 1042.87,-208.05 1039.37,-218.05 1046.37,-218.05"/>
</g>
<!-- display&#45;&gt;Grid Box\nModel\nValues -->
<g id="edge24" class="edge"><title>display&#45;&gt;Grid Box\nModel\nValues</title>
<path fill="none" stroke="black" d="M1074.68,-248.112C1106.06,-235.394 1154.28,-215.851 1189.24,-201.684"/>
<polygon fill="black" stroke="black" points="1190.77,-204.841 1198.72,-197.841 1188.14,-198.354 1190.77,-204.841"/>
</g>
<!-- display&#45;&gt;Basic Box\nModel\nValues -->
<g id="edge27" class="edge"><title>display&#45;&gt;Basic Box\nModel\nValues</title>
<path fill="none" stroke="black" d="M1074.71,-254.301C1139.24,-240.725 1285.74,-209.904 1361.51,-193.964"/>
<polygon fill="black" stroke="black" points="1362.65,-197.3 1371.72,-191.817 1361.21,-190.45 1362.65,-197.3"/>
</g>
</g>
</svg>
